<svg xmlns="http://www.w3.org/2000/svg" width="25.424" height="25" viewBox="0 0 25.424 25">
  <path id="github-mark" d="M12.722,0A12.83,12.83,0,0,0,8.7,24.976c.632.128.864-.276.864-.615,0-.3-.021-1.316-.021-2.377C6,22.748,5.266,20.456,5.266,20.456a3.274,3.274,0,0,0-1.411-1.867c-1.158-.785.084-.785.084-.785A2.668,2.668,0,0,1,5.9,19.119,2.7,2.7,0,0,0,9.6,20.18a2.731,2.731,0,0,1,.8-1.719c-2.823-.3-5.792-1.4-5.792-6.324A5.018,5.018,0,0,1,5.919,8.7a4.662,4.662,0,0,1,.127-3.4s1.074-.34,3.5,1.316a12.128,12.128,0,0,1,6.361,0C18.325,4.965,19.4,5.3,19.4,5.3a4.661,4.661,0,0,1,.126,3.4,4.921,4.921,0,0,1,1.306,3.437c0,4.923-2.97,6.005-5.814,6.324a3.044,3.044,0,0,1,.864,2.377c0,1.719-.021,3.1-.021,3.522,0,.34.232.743.864.616A12.83,12.83,0,0,0,12.722,0Z" fill="#4f4350" fill-rule="evenodd"/>
</svg>
