<svg xmlns="http://www.w3.org/2000/svg" width="25" height="25" viewBox="0 0 25 25">
  <g id="linkedin-logo" transform="translate(0 -0.001)">
    <path id="Exclusion_2" data-name="Exclusion 2" d="M22.223,25H2.777A2.78,2.78,0,0,1,0,22.223V2.777A2.781,2.781,0,0,1,2.777,0H22.223A2.78,2.78,0,0,1,25,2.777V22.223A2.78,2.78,0,0,1,22.223,25ZM15.789,12.509a1.781,1.781,0,0,1,1.529.7,3.375,3.375,0,0,1,.5,2v6.319h3.71V13.906A6.343,6.343,0,0,0,21.2,11.8a4.011,4.011,0,0,0-.908-1.493,4.275,4.275,0,0,0-3.147-1.183,4.221,4.221,0,0,0-2.772.995,3.921,3.921,0,0,0-.857.994V9.491H9.942V21.528h3.576V15.209a3.061,3.061,0,0,1,.576-1.985A2.076,2.076,0,0,1,15.789,12.509ZM3.831,9.491V21.528H7.56V9.491ZM5.678,3.472a2.222,2.222,0,1,0,2.2,2.222A2.216,2.216,0,0,0,5.678,3.472Z" transform="translate(0 0.001)" fill="#4f4350"/>
  </g>
</svg>
